<?xml version="1.0" standalone="no"?>
<!DOCTYPE svg PUBLIC "-//W3C//DTD SVG 20010904//EN"
 "http://www.w3.org/TR/2001/REC-SVG-20010904/DTD/svg10.dtd">
<svg version="1.0" xmlns="http://www.w3.org/2000/svg"
 width="700.000000pt" height="700.000000pt" viewBox="0 0 700.000000 700.000000"
 preserveAspectRatio="xMidYMid meet">
<metadata>
Created by potrace 1.14, written by Peter Selinger 2001-2017
</metadata>
<g transform="translate(0.000000,700.000000) scale(0.100000,-0.100000)"
fill="#000000" stroke="none">
<path d="M3445 6934 c-14 -15 -25 -30 -25 -34 0 -5 -68 -158 -151 -341 -353
-779 -533 -1178 -560 -1237 -34 -74 -36 -105 -9 -132 36 -36 64 -30 153 28 98
64 99 64 212 120 274 136 481 151 746 56 92 -33 221 -100 324 -169 99 -65 128
-72 165 -35 34 34 29 53 -57 240 -14 30 -56 123 -93 205 -37 83 -82 182 -100
220 -18 39 -51 113 -75 165 -24 52 -54 120 -68 150 -14 30 -57 127 -97 215
-40 88 -83 185 -97 215 -14 30 -33 73 -43 95 -10 22 -34 75 -54 118 -20 42
-36 80 -36 83 0 3 -9 19 -21 35 -28 39 -79 40 -114 3z"/>
<path d="M2857 6614 c-2 -2 -37 -11 -78 -19 -87 -19 -87 -19 -159 -40 -30 -9
-59 -17 -65 -19 -72 -20 -108 -32 -201 -66 -936 -347 -1674 -1109 -1989 -2054
-63 -189 -119 -431 -141 -601 -12 -96 -13 -111 -20 -215 -13 -176 -6 -550 11
-610 2 -8 7 -37 10 -65 17 -160 87 -453 150 -635 163 -468 424 -886 769 -1234
227 -229 406 -370 662 -524 93 -56 335 -182 348 -182 4 0 25 -9 49 -20 164
-75 439 -161 657 -204 212 -42 427 -62 650 -60 145 1 359 12 370 19 3 2 30 6
60 9 30 4 66 8 80 11 14 2 54 9 90 15 321 55 746 212 1028 379 29 17 55 31 58
31 3 0 10 4 17 10 7 5 64 44 127 86 225 150 500 393 666 589 32 39 61 72 64
75 3 3 42 53 85 112 327 441 556 1001 620 1518 4 30 9 66 10 80 23 177 24 577
1 741 -17 115 -29 197 -32 214 -3 11 -7 35 -10 53 -3 19 -18 86 -34 150 -286
1166 -1201 2099 -2360 2406 -226 60 -280 63 -347 19 -109 -70 -119 -223 -20
-308 30 -26 58 -38 116 -51 368 -80 689 -214 999 -417 559 -367 977 -917 1182
-1557 17 -52 32 -104 35 -115 2 -11 13 -56 24 -100 21 -87 40 -186 47 -249 3
-23 7 -52 9 -66 3 -14 7 -55 11 -92 5 -54 3 -68 -7 -69 -8 -1 -221 -2 -474 -3
-426 -1 -463 -2 -488 -19 -90 -59 -87 -195 5 -243 30 -16 76 -18 504 -18 l470
-1 -2 -45 c-3 -54 -13 -162 -19 -210 -3 -19 -7 -57 -10 -85 -21 -181 -122
-533 -207 -721 -12 -27 -23 -51 -23 -54 -1 -3 -23 -48 -49 -100 -288 -565
-744 -1020 -1303 -1299 -159 -79 -440 -187 -538 -207 -5 -1 -37 -9 -70 -17
-130 -34 -300 -61 -453 -72 -42 -4 -82 -8 -89 -10 -10 -3 -13 106 -15 480 l-3
485 -36 36 c-61 61 -157 57 -209 -9 l-25 -31 -5 -481 c-3 -311 -9 -480 -15
-479 -5 1 -48 5 -95 8 -96 8 -119 11 -245 32 -450 76 -886 264 -1254 542 -142
107 -186 146 -326 286 -294 297 -527 665 -669 1057 -41 115 -99 318 -112 393
-2 17 -7 38 -9 46 -11 38 -34 214 -41 313 -3 45 -7 91 -9 103 -2 11 0 25 3 30
4 6 193 10 472 10 423 0 468 2 498 17 92 49 95 185 5 244 -25 17 -61 18 -498
18 l-470 1 -1 32 c0 47 20 231 31 272 2 8 6 32 10 53 6 43 59 261 77 317 57
178 178 453 268 610 73 126 231 344 330 455 48 54 205 211 260 260 264 236
635 453 970 568 77 27 240 75 275 83 134 28 165 38 200 66 107 89 89 259 -34
322 -26 14 -115 28 -124 20z"/>
<path d="M3065 5196 c-17 -7 -36 -26 -43 -41 -12 -26 -15 -219 -12 -887 l0
-136 31 -31 c42 -43 98 -43 140 -2 16 16 29 35 30 43 1 7 2 158 3 335 0 177 3
324 6 326 3 3 69 -72 147 -166 78 -95 153 -184 165 -199 24 -27 188 -225 223
-268 64 -79 92 -100 133 -100 57 0 102 45 103 103 5 347 -2 955 -11 978 -12
27 -62 59 -95 59 -9 0 -28 -6 -43 -14 -55 -28 -57 -39 -57 -397 1 -181 -2
-329 -5 -329 -3 0 -64 70 -135 157 -72 86 -135 161 -140 167 -6 6 -30 36 -55
66 -25 30 -55 66 -67 80 -11 14 -60 72 -108 130 -118 142 -142 156 -210 126z"/>
</g>
</svg>
